<svg width="400" height="400" viewBox="0 0 400 400" fill="none" xmlns="http://www.w3.org/2000/svg">
<rect width="400" height="400" fill="white"/>
<path fill-rule="evenodd" clip-rule="evenodd" d="M368 222.791C368 271.83 347.1 316.164 313.585 347H273.145C274.011 343.037 271.909 340.313 269.188 338.455C263.499 334.492 259.913 327.929 260.778 321.118C263.004 303.161 273.887 280.251 313.585 259.199C340.422 244.834 345.368 215.237 347.223 210.902C349.944 203.72 349.202 197.652 343.513 191.831C333.249 181.305 322.119 171.77 308.639 165.578C289.717 156.661 270.425 157.157 251.256 164.339C247.917 165.578 248.659 162.977 248.411 161.863C245.814 149.231 241.486 137.095 235.302 125.702C222.812 103.164 205.374 86.5693 179.404 80.9966C175.57 80.1297 171.612 79.8821 167.655 79.3867C165.8 79.139 164.811 79.6344 165.305 81.8635C168.768 98.4577 173.591 114.433 184.103 128.055C188.926 134.371 195.481 138.581 201.912 142.915C208.713 147.621 215.886 151.956 222.317 157.281C228.377 162.482 233.324 168.55 235.673 177.218C234.808 176.352 234.437 176.104 234.189 175.732C214.402 144.278 175.694 130.408 136.738 141.801C133.151 142.792 133.646 144.03 135.377 146.631C146.631 163.968 162.09 176.352 180.393 185.887C193.997 192.946 208.095 198.766 223.43 200.748C230.356 201.615 227.016 206.32 228.129 211.893C229.614 220.562 233.2 223.286 231.963 222.543C208.466 213.131 188.926 209.416 172.725 209.416C105.82 209.416 94.9372 273.317 95.4319 274.06C94.4425 273.688 78.3655 267.744 74.7791 283.843C71.069 300.189 92.9585 310.839 92.9585 310.839C95.8029 291.521 113.117 287.31 115.219 286.815C113.488 287.806 102.234 294.369 98.771 312.325C95.8029 328.177 108.294 342.17 112.993 347H85.291C51.9002 316.164 31 271.83 31 222.791C31 129.541 106.315 54 199.438 54C292.561 54 368 129.541 368 222.791ZM245.567 347H227.758C228.624 346.133 229.243 344.895 229.49 343.533C230.974 334.864 223.554 333.13 223.554 333.13H182.495C182.495 333.13 198.82 332.387 213.784 326.195C228.624 319.879 240.62 308.858 242.723 305.886C235.797 322.232 239.136 335.978 241.981 342.913C242.599 344.647 243.959 346.133 245.567 347Z" fill="#FF4702"/>
</svg>
