<svg width="24" height="24" viewBox="0 0 24 24" fill="none" xmlns="http://www.w3.org/2000/svg">
<g id="Write">
<path id="Vector" d="M22.0079 5.7362L20.8079 3.8162C20.7119 3.6722 20.5679 3.6002 20.3999 3.6002C20.2319 3.6002 20.0879 3.6962 19.9919 3.8162L18.7919 5.7362C18.7439 5.8322 18.7199 5.9042 18.7199 6.0002V18.7202C18.7199 19.6562 19.4639 20.4002 20.3999 20.4002C21.3359 20.4002 22.0799 19.6562 22.0799 18.7202V6.0002C22.0799 5.9042 22.0559 5.8322 22.0079 5.7362ZM20.3999 4.9922L21.1199 6.1442V17.0402H19.6799V6.1442L20.3999 4.9922ZM20.3999 19.4402C19.9919 19.4402 19.6799 19.1282 19.6799 18.7202V18.0002H21.1199V18.7202C21.1199 19.1282 20.8079 19.4402 20.3999 19.4402ZM15.8399 1.2002H3.35992C2.56792 1.2002 1.91992 1.8482 1.91992 2.6402V21.3602C1.91992 22.1522 2.56792 22.8002 3.35992 22.8002H15.8399C16.6319 22.8002 17.2799 22.1522 17.2799 21.3602V2.6402C17.2799 1.8482 16.6319 1.2002 15.8399 1.2002ZM16.3199 21.3602C16.3199 21.6242 16.1039 21.8402 15.8399 21.8402H3.35992C3.09592 21.8402 2.87992 21.6242 2.87992 21.3602V2.6402C2.87992 2.3762 3.09592 2.1602 3.35992 2.1602H15.8399C16.1039 2.1602 16.3199 2.3762 16.3199 2.6402V21.3602ZM6.71992 4.5602C6.71992 4.2962 6.93592 4.0802 7.19992 4.0802H11.9999C12.2639 4.0802 12.4799 4.2962 12.4799 4.5602C12.4799 4.8242 12.2639 5.0402 11.9999 5.0402H7.19992C6.93592 5.0402 6.71992 4.8242 6.71992 4.5602ZM14.3999 6.9602C14.3999 7.2242 14.1839 7.4402 13.9199 7.4402H5.27992C5.01592 7.4402 4.79992 7.2242 4.79992 6.9602C4.79992 6.6962 5.01592 6.4802 5.27992 6.4802H13.9199C14.1839 6.4802 14.3999 6.6962 14.3999 6.9602ZM14.3999 9.3602C14.3999 9.6242 14.1839 9.8402 13.9199 9.8402H5.27992C5.01592 9.8402 4.79992 9.6242 4.79992 9.3602C4.79992 9.0962 5.01592 8.8802 5.27992 8.8802H13.9199C14.1839 8.8802 14.3999 9.0962 14.3999 9.3602ZM14.3999 11.7602C14.3999 12.0242 14.1839 12.2402 13.9199 12.2402H5.27992C5.01592 12.2402 4.79992 12.0242 4.79992 11.7602C4.79992 11.4962 5.01592 11.2802 5.27992 11.2802H13.9199C14.1839 11.2802 14.3999 11.4962 14.3999 11.7602ZM14.3999 17.0402C14.3999 17.3042 14.1839 17.5202 13.9199 17.5202H5.27992C5.01592 17.5202 4.79992 17.3042 4.79992 17.0402C4.79992 16.7762 5.01592 16.5602 5.27992 16.5602H13.9199C14.1839 16.5602 14.3999 16.7762 14.3999 17.0402ZM14.3999 19.4402C14.3999 19.7042 14.1839 19.9202 13.9199 19.9202H5.27992C5.01592 19.9202 4.79992 19.7042 4.79992 19.4402C4.79992 19.1762 5.01592 18.9602 5.27992 18.9602H13.9199C14.1839 18.9602 14.3999 19.1762 14.3999 19.4402Z" fill="#F27A40"/>
</g>
</svg>
