<svg width="128" height="128" viewBox="0 0 128 128" fill="none" xmlns="http://www.w3.org/2000/svg">
<path fill-rule="evenodd" clip-rule="evenodd" d="M128 71.9446C128 90.5228 120.062 107.318 107.332 119H91.9721C92.3009 117.499 91.5024 116.467 90.469 115.763C88.3082 114.262 86.946 111.775 87.2749 109.195C88.1204 102.392 92.2539 93.713 107.332 85.7375C117.525 80.2954 119.404 69.0828 120.109 67.4408C121.142 64.7198 120.86 62.4209 118.699 60.216C114.801 56.2282 110.573 52.6158 105.453 50.2701C98.2664 46.8922 90.9387 47.0799 83.658 49.8009C82.3897 50.2701 82.6716 49.2849 82.5776 48.8626C81.5912 44.0774 79.9472 39.4797 77.5985 35.1636C72.8543 26.6251 66.2312 20.3385 56.367 18.2274C54.9108 17.899 53.4077 17.8052 51.9046 17.6175C51.2 17.5237 50.8242 17.7113 51.0121 18.5558C52.3273 24.8423 54.1593 30.8943 58.1519 36.0549C59.9838 38.4476 62.4734 40.0427 64.916 41.6847C67.4994 43.4674 70.2239 45.1095 72.6664 47.1268C74.9681 49.0972 76.847 51.396 77.7394 54.68C77.4106 54.3516 77.2697 54.2578 77.1758 54.1171C69.6602 42.2007 54.9578 36.9463 40.1615 41.2625C38.7993 41.6378 38.9872 42.1069 39.6448 43.0921C43.9193 49.6602 49.7908 54.3516 56.7427 57.9641C61.9097 60.6382 67.2646 62.8432 73.0892 63.5938C75.7196 63.9222 74.4514 65.705 74.8741 67.8161C75.4378 71.1002 76.8 72.1323 76.3303 71.8508C67.4055 68.2853 59.9838 66.8778 53.8304 66.8778C28.4183 66.8778 24.2848 91.0858 24.4726 91.3673C24.0969 91.2265 17.9905 88.9746 16.6283 95.0735C15.2191 101.266 23.5332 105.301 23.5332 105.301C24.6136 97.9822 31.1897 96.3872 31.9882 96.1995C31.3306 96.5748 27.0561 99.0613 25.7409 105.864C24.6136 111.869 29.3578 117.17 31.1427 119H20.6209C7.93835 107.318 0 90.5228 0 71.9446C0 36.6179 28.6062 8 63.9765 8C99.3468 8 128 36.6179 128 71.9446ZM81.4972 119H74.7332C75.062 118.672 75.2969 118.202 75.3908 117.686C75.9545 114.402 73.1362 113.746 73.1362 113.746H57.5413C57.5413 113.746 63.7416 113.464 69.4253 111.118C75.062 108.726 79.6184 104.55 80.4169 103.424C77.7864 109.617 79.0547 114.825 80.135 117.452C80.3699 118.109 80.8866 118.672 81.4972 119Z" fill="#FF4702"/>
</svg>
