<svg width="412" height="81" viewBox="0 0 412 81" fill="none" xmlns="http://www.w3.org/2000/svg">
<path fill-rule="evenodd" clip-rule="evenodd" d="M127.384 44.247C126.531 39.1818 122.655 36.265 117.707 36.265C111.05 36.265 106.361 41.5784 106.361 51.1278C106.361 60.8438 111.091 65.9907 117.688 65.9907C122.557 65.9907 126.45 63.1997 127.384 58.2397L134.816 58.2805C133.684 66.3613 127.265 72.8749 117.588 72.8749C106.858 72.8749 98.9492 64.7907 98.9492 51.1278C98.9492 37.4445 106.958 29.3809 117.588 29.3809C126.609 29.3809 133.565 34.8406 134.816 44.247H127.384Z" fill="#F4A261"/>
<path fill-rule="evenodd" clip-rule="evenodd" d="M161.755 56.4947C161.755 50.6882 159.33 46.0376 154.461 46.0376C149.514 46.0376 147.09 50.6882 147.09 56.4947C147.09 62.3045 149.514 66.894 154.461 66.894C159.33 66.894 161.755 62.3045 161.755 56.4947ZM139.797 56.5151C139.797 46.6767 145.481 40.1055 154.422 40.1055C163.363 40.1055 169.047 46.6767 169.047 56.5151C169.047 66.333 163.363 72.8874 154.422 72.8874C145.481 72.8874 139.797 66.333 139.797 56.5151Z" fill="#F4A261"/>
<path fill-rule="evenodd" clip-rule="evenodd" d="M195.484 56.4198C195.484 50.2598 192.941 46.2687 188.312 46.2687C183.523 46.2687 181.059 50.508 181.059 56.4198C181.059 62.3725 183.562 66.7136 188.312 66.7136C192.901 66.7136 195.484 62.5799 195.484 56.4198ZM173.727 56.4606C173.727 45.8777 179.27 40.1325 186.325 40.1325C191.71 40.1325 193.955 43.498 195.047 45.7928H195.346V29.9609H202.559V72.2925H195.484V67.2915H195.047C193.915 69.6068 191.55 72.8534 186.304 72.8534C179.111 72.8534 173.727 66.9211 173.727 56.4606Z" fill="#F4A261"/>
<path fill-rule="evenodd" clip-rule="evenodd" d="M230.285 53.3943C230.246 49.0734 227.465 45.9322 223.334 45.9322C219.04 45.9322 216.158 49.3454 215.939 53.3943H230.285ZM208.785 56.5763C208.785 46.7787 214.491 40.1055 223.233 40.1055C230.746 40.1055 237.181 45.0007 237.181 56.1411V58.4392H215.919C215.978 63.8751 219.06 67.0571 223.707 67.0571C226.808 67.0571 229.194 65.6531 230.168 62.9641L236.883 63.7494C235.612 69.2703 230.723 72.8874 223.612 72.8874C214.41 72.8874 208.785 66.5438 208.785 56.5763Z" fill="#F4A261"/>
<path fill-rule="evenodd" clip-rule="evenodd" d="M257.596 50.4238C263.064 50.4238 265.524 48.0067 265.524 43.4989C265.524 38.9944 263.064 36.3666 257.557 36.3666H250.802V50.4238H257.596ZM243.43 29.9619H258.691C268.031 29.9619 273.038 35.4181 273.038 43.4989C273.038 49.2441 270.515 53.5072 265.724 55.5096L274.528 72.2933H266.302L258.312 56.7912H250.802V72.2933H243.43V29.9619Z" fill="#F4A261"/>
<path fill-rule="evenodd" clip-rule="evenodd" d="M297.091 60.8769V57.1339C296.156 57.9226 292.385 58.419 290.496 58.6875C287.277 59.1635 284.872 60.3601 284.872 63.2362C284.872 65.983 287.019 67.4075 290.019 67.4075C294.353 67.4075 297.091 64.409 297.091 60.8769ZM277.938 63.3586C277.938 56.2059 283.601 54.3667 289.522 53.7038C294.908 53.1054 297.075 53.0035 297.075 50.8515V50.7291C297.075 47.6049 295.245 45.8304 291.905 45.8304C288.388 45.8304 286.362 47.6899 285.647 49.8589L278.931 48.8662C280.519 43.0801 285.447 40.1055 291.865 40.1055C297.689 40.1055 304.264 42.6246 304.264 51.0181V72.2655H297.349V67.9038H297.111C295.8 70.5725 292.941 72.908 288.15 72.908C282.33 72.908 277.938 69.6002 277.938 63.3586Z" fill="#F4A261"/>
<path fill-rule="evenodd" clip-rule="evenodd" d="M325.909 66.7136C330.661 66.7136 333.164 62.3725 333.164 56.4198C333.164 50.508 330.7 46.2687 325.909 46.2687C321.282 46.2687 318.739 50.2598 318.739 56.4198C318.739 62.5799 321.321 66.7136 325.909 66.7136ZM311.684 29.9609H318.876V45.7928H319.174C320.269 43.498 322.51 40.1325 327.899 40.1325C334.952 40.1325 340.494 45.8777 340.494 56.4606C340.494 66.9211 335.108 72.8534 327.916 72.8534C322.671 72.8534 320.308 69.6068 319.174 67.2915H318.755V72.2925H311.684V29.9609Z" fill="#F4A261"/>
<path fill-rule="evenodd" clip-rule="evenodd" d="M361.034 66.7136C365.782 66.7136 368.286 62.3725 368.286 56.4198C368.286 50.508 365.822 46.2687 361.034 46.2687C356.403 46.2687 353.861 50.2598 353.861 56.4198C353.861 62.5799 356.443 66.7136 361.034 66.7136ZM346.809 29.9609H353.998V45.7928H354.296C355.39 43.498 357.635 40.1325 363.021 40.1325C370.077 40.1325 375.619 45.8777 375.619 56.4606C375.619 66.9211 370.237 72.8534 363.041 72.8534C357.796 72.8534 355.43 69.6068 354.296 67.2915H353.881V72.2925H346.809V29.9609Z" fill="#F4A261"/>
<path fill-rule="evenodd" clip-rule="evenodd" d="M381.649 40.5506H388.842V72.2993H381.649V40.5506ZM381.094 31.9941C381.094 29.7401 382.963 27.918 385.267 27.918C387.551 27.918 389.421 29.7401 389.421 31.9941C389.421 34.2242 387.551 36.043 385.267 36.043C382.963 36.043 381.094 34.2242 381.094 31.9941Z" fill="#F4A261"/>
<path fill-rule="evenodd" clip-rule="evenodd" d="M411.401 46.3211H405.382V62.7342C405.382 65.7531 406.833 66.4126 408.64 66.4126C409.535 66.4126 410.349 66.229 410.748 66.1236L411.957 71.9741C411.182 72.2428 409.771 72.6576 407.725 72.7188C402.32 72.8854 398.146 69.9481 398.186 63.9751V46.3211H393.855V40.535H398.186V32.9268H405.382V40.535H411.401V46.3211Z" fill="#F4A261"/>
<path fill-rule="evenodd" clip-rule="evenodd" d="M44.5241 0C19.9238 0 0 20.7476 0 46.3394C0 59.8154 5.52615 71.9552 14.3758 80.4202H21.6891C20.4281 79.1079 17.1503 75.2698 17.9298 70.9286C18.8464 65.9924 21.8042 64.177 22.2621 63.9152C21.712 64.0376 17.1503 65.2037 16.3934 70.524C16.3934 70.524 10.5924 67.5902 11.5784 63.0824C12.5189 58.6697 16.783 60.3151 17.0349 60.4103C16.9208 60.2199 19.7866 42.6679 37.4631 42.6679C41.7499 42.6679 46.9084 43.6912 53.1219 46.2681C53.4424 46.4584 52.5029 45.7207 52.0901 43.3342C51.815 41.8078 52.6859 40.5195 50.8518 40.2816C46.8169 39.7308 43.0794 38.1363 39.4806 36.2021C34.6657 33.6048 30.5617 30.1916 27.5816 25.422C27.1458 24.7319 27.0088 24.3749 27.9709 24.0894C38.2653 20.9618 48.4675 24.7795 53.6947 33.411C53.764 33.5061 53.8555 33.6048 54.1078 33.8428C53.4662 31.4325 52.1823 29.7871 50.5538 28.3559C48.8575 26.9008 46.977 25.711 45.1666 24.4225C43.4699 23.2293 41.7499 22.0598 40.4666 20.3431C37.6924 16.6001 36.4081 12.2113 35.5137 7.65584C35.3768 7.03372 35.629 6.89094 36.1336 6.96233C37.1649 7.10511 38.2196 7.1765 39.2284 7.41447C46.1061 8.94428 50.7146 13.4997 53.9928 19.6971C55.6208 22.8247 56.7669 26.1393 57.4781 29.5967C57.5463 29.9299 57.3398 30.6234 58.2116 30.2868C63.278 28.3321 68.3679 28.1893 73.3888 30.6234C76.9427 32.3402 79.8769 34.9646 82.6057 37.8509C84.0953 39.4213 84.3018 41.1145 83.5681 43.0725C83.0871 44.2657 81.7797 52.3975 74.6727 56.3308C64.1957 62.1033 61.3297 68.4027 60.733 73.3151C60.5045 75.1984 61.4669 76.9866 62.9574 78.0847C63.6682 78.5844 64.2181 79.3459 63.9891 80.4202H74.6956C83.5453 71.9552 89.0711 59.8154 89.0711 46.3394C89.0711 20.7476 69.1247 0 44.5241 0ZM56.6982 80.4202H52.0214C52.2281 80.1822 52.3878 79.8728 52.4574 79.4683C52.8466 77.1056 50.898 76.6297 50.898 76.6297H40.0538C40.0538 76.6297 44.3634 76.4393 48.3068 74.7225C52.251 73.0057 55.3915 69.9495 55.9646 69.1404C54.1306 73.6482 55.0241 77.415 55.7581 79.3255C55.9417 79.8015 56.2856 80.206 56.6982 80.4202Z" fill="#F4A261"/>
</svg>
