<svg width="516" height="81" viewBox="0 0 516 81" fill="none" xmlns="http://www.w3.org/2000/svg">
<mask id="mask0_2670_2239" style="mask-type:luminance" maskUnits="userSpaceOnUse" x="0" y="0" width="516" height="81">
<path d="M516 0.256836H0V80.2568H516V0.256836Z" fill="white"/>
</mask>
<g mask="url(#mask0_2670_2239)">
<path d="M129.394 33.787C131.394 30.1736 134.182 27.3475 137.757 25.3289C141.333 23.3101 145.394 22.3008 149.92 22.3008C155.475 22.3008 160.222 23.7745 164.182 26.7015C168.141 29.6286 170.768 33.6256 172.101 38.6924H159.575C158.646 36.7343 157.313 35.2607 155.616 34.2312C153.899 33.2016 151.96 32.697 149.777 32.697C146.262 32.697 143.434 33.9082 141.253 36.3507C139.071 38.7933 137.98 42.0636 137.98 46.1413C137.98 50.2191 139.071 53.4893 141.253 55.9319C143.434 58.3745 146.262 59.5857 149.777 59.5857C151.96 59.5857 153.899 59.081 155.616 58.0515C157.333 57.022 158.646 55.5484 159.575 53.5902H172.101C170.768 58.6571 168.121 62.6339 164.182 65.5408C160.222 68.4476 155.475 69.9011 149.92 69.9011C145.394 69.9011 141.333 68.8918 137.757 66.873C134.182 64.8544 131.394 62.0485 129.394 58.4552C127.394 54.862 126.404 50.7641 126.404 46.1413C126.404 41.5186 127.394 37.4005 129.394 33.787Z" fill="white"/>
<path d="M184.868 67.7819C181.96 66.2276 179.677 64.007 178 61.1203C176.344 58.2337 175.495 54.8624 175.495 51.0068C175.495 47.1511 176.344 43.8203 178.02 40.9134C179.717 38.0065 182.02 35.7859 184.95 34.2316C187.879 32.6772 191.171 31.9102 194.808 31.9102C198.444 31.9102 201.738 32.6772 204.667 34.2316C207.596 35.7859 209.899 38.0065 211.596 40.9134C213.293 43.8203 214.122 47.1915 214.122 51.0068C214.122 54.822 213.273 58.1933 211.555 61.1001C209.839 64.007 207.516 66.2276 204.566 67.7819C201.616 69.3363 198.323 70.1034 194.667 70.1034C191.01 70.1034 187.757 69.3363 184.849 67.7819H184.868ZM200.262 57.8703C201.798 56.2755 202.565 53.9944 202.565 51.0068C202.565 48.0191 201.818 45.7582 200.344 44.1433C198.849 42.5486 197.03 41.741 194.848 41.741C192.666 41.741 190.788 42.5284 189.313 44.1029C187.838 45.6775 187.111 47.9787 187.111 50.9866C187.111 53.9944 187.838 56.2553 189.273 57.8501C190.707 59.4449 192.525 60.2523 194.707 60.2523C196.889 60.2523 198.747 59.4449 200.262 57.8501V57.8703Z" fill="white"/>
<path d="M218.767 40.873C220.201 37.9863 222.18 35.7658 224.665 34.2114C227.15 32.6571 229.917 31.8899 232.989 31.8899C235.433 31.8899 237.656 32.3946 239.675 33.4241C241.695 34.4537 243.291 35.8263 244.443 37.5422V20.3027H255.837V69.5583H244.443V64.229C243.373 66.0055 241.857 67.4185 239.877 68.4885C237.898 69.5583 235.594 70.0832 232.989 70.0832C229.917 70.0832 227.15 69.2959 224.665 67.7213C222.18 66.1468 220.221 63.906 218.767 60.9992C217.332 58.0923 216.604 54.7413 216.604 50.9058C216.604 47.0703 217.332 43.7395 218.767 40.8528V40.873ZM242.08 44.2643C240.503 42.6293 238.585 41.8016 236.322 41.8016C234.059 41.8016 232.14 42.6091 230.564 44.224C228.989 45.8389 228.201 48.0797 228.201 50.9058C228.201 53.732 228.989 55.9929 230.564 57.6683C232.14 59.3237 234.059 60.1715 236.322 60.1715C238.585 60.1715 240.503 59.3439 242.08 57.7087C243.655 56.0736 244.443 53.8329 244.443 50.9866C244.443 48.1402 243.655 45.8995 242.08 44.2643Z" fill="white"/>
<path d="M297.617 53.731H271.838C272.021 56.0323 272.768 57.8087 274.061 59.0199C275.374 60.2311 276.991 60.8569 278.89 60.8569C281.738 60.8569 283.717 59.6659 284.829 57.2637H296.95C296.324 59.7063 295.212 61.9067 293.576 63.8446C291.96 65.8027 289.92 67.3369 287.475 68.4472C285.031 69.5575 282.304 70.1025 279.273 70.1025C275.637 70.1025 272.384 69.3353 269.556 67.781C266.708 66.2266 264.485 64.006 262.889 61.1194C261.294 58.2327 260.485 54.8615 260.485 51.0058C260.485 47.1501 261.273 43.779 262.849 40.8922C264.425 38.0056 266.626 35.7851 269.475 34.2307C272.324 32.6763 275.576 31.9092 279.273 31.9092C282.97 31.9092 286.061 32.6561 288.869 34.1701C291.657 35.6841 293.859 37.8239 295.435 40.6298C297.011 43.4156 297.798 46.6859 297.798 50.4204C297.798 51.4903 297.737 52.6006 297.596 53.7512L297.617 53.731ZM286.162 47.4126C286.162 45.4545 285.496 43.9001 284.162 42.7494C282.828 41.5988 281.172 41.0134 279.172 41.0134C277.172 41.0134 275.657 41.5584 274.344 42.6687C273.03 43.779 272.223 45.3535 271.92 47.3925H286.182L286.162 47.4126Z" fill="white"/>
<path d="M326.99 69.5779L317.273 51.9347H314.546V69.5779H303.151V22.8457H322.263C325.96 22.8457 329.092 23.4917 331.697 24.7836C334.304 26.0755 336.243 27.8318 337.536 30.0725C338.829 32.3132 339.475 34.8164 339.475 37.5617C339.475 40.6705 338.606 43.4362 336.848 45.8787C335.091 48.3213 332.505 50.0573 329.092 51.0667L339.879 69.5779H327.01H326.99ZM314.526 43.8802H321.596C323.677 43.8802 325.253 43.3756 326.283 42.346C327.334 41.3165 327.859 39.8833 327.859 38.0261C327.859 36.1689 327.334 34.8568 326.283 33.8272C325.232 32.7977 323.677 32.293 321.596 32.293H314.526V43.8802Z" fill="white"/>
<path d="M345.151 40.8724C346.586 37.9856 348.565 35.7651 351.05 34.2107C353.535 32.6563 356.323 32.1113 359.373 32.1113H382.222V69.5577H370.828V64.3092C369.716 66.0452 368.181 67.4381 366.201 68.5079C364.222 69.5779 361.918 70.1027 359.313 70.1027C356.283 70.1027 353.535 69.3155 351.05 67.7409C348.565 66.1663 346.605 63.9256 345.151 61.0187C343.716 58.1118 342.989 54.7608 342.989 50.9253C342.989 47.0899 343.716 43.759 345.151 40.8724ZM368.465 44.2637C366.888 42.6286 364.969 41.801 362.706 41.801C360.444 41.801 358.525 42.6084 356.949 44.2233C355.373 45.8383 354.586 48.079 354.586 50.9052C354.586 53.7312 355.373 55.9922 356.949 57.6677C358.525 59.323 360.444 60.1709 362.706 60.1709C364.969 60.1709 366.888 59.3431 368.465 57.7081C370.04 56.0729 370.828 53.8322 370.828 50.9859C370.828 48.1395 370.04 45.8989 368.465 44.2637Z" fill="white"/>
<path d="M405.152 33.4847C407.153 32.4147 409.435 31.8899 412.021 31.8899C415.092 31.8899 417.86 32.6571 420.345 34.2114C422.83 35.7658 424.789 37.9863 426.244 40.873C427.678 43.7597 428.405 47.1107 428.405 50.926C428.405 54.7413 427.678 58.1125 426.244 61.0194C424.809 63.9262 422.83 66.167 420.345 67.7415C417.86 69.3161 415.092 70.1034 412.021 70.1034C409.395 70.1034 407.112 69.5785 405.152 68.5491C403.193 67.4993 401.658 66.1266 400.547 64.3906V69.5785H389.152V20.3027H400.547V37.6835C401.617 35.9475 403.153 34.5545 405.152 33.4847ZM414.445 44.2442C412.87 42.6293 410.93 41.8218 408.607 41.8218C406.284 41.8218 404.425 42.6494 402.85 44.2845C401.273 45.9197 400.486 48.1604 400.486 51.0068C400.486 53.8531 401.273 56.0938 402.85 57.7289C404.425 59.3641 406.344 60.1917 408.607 60.1917C410.869 60.1917 412.809 59.3641 414.405 57.6885C416.001 56.0333 416.809 53.7723 416.809 50.926C416.809 48.0797 416.022 45.8591 414.445 44.2442Z" fill="white"/>
<path d="M449.051 33.4846C451.05 32.4147 453.333 31.8898 455.919 31.8898C458.99 31.8898 461.757 32.657 464.242 34.2113C466.727 35.7657 468.687 37.9863 470.141 40.873C471.575 43.7596 472.303 47.1107 472.303 50.9259C472.303 54.7412 471.575 58.1124 470.141 61.0193C468.707 63.9262 466.727 66.167 464.242 67.7415C461.757 69.3161 458.99 70.1033 455.919 70.1033C453.293 70.1033 451.01 69.5785 449.051 68.549C447.091 67.4992 445.555 66.1266 444.444 64.3905V69.5785H433.051V20.3027H444.444V37.6835C445.515 35.9474 447.05 34.5545 449.051 33.4846ZM458.344 44.2442C456.767 42.6292 454.828 41.8218 452.505 41.8218C450.182 41.8218 448.323 42.6494 446.747 44.2845C445.172 45.9196 444.384 48.1603 444.384 51.0067C444.384 53.853 445.172 56.0938 446.747 57.7289C448.323 59.364 450.243 60.1917 452.505 60.1917C454.768 60.1917 456.707 59.364 458.302 57.6885C459.898 56.0332 460.707 53.7722 460.707 50.9259C460.707 48.0797 459.919 45.8591 458.344 44.2442Z" fill="white"/>
<path d="M477.798 26.8031C476.524 25.6323 475.898 24.1788 475.898 22.4427C475.898 20.7066 476.524 19.1926 477.798 18.0218C479.07 16.851 480.686 16.2656 482.686 16.2656C484.686 16.2656 486.242 16.851 487.514 18.0218C488.787 19.1926 489.413 20.6662 489.413 22.4427C489.413 24.2191 488.787 25.6323 487.514 26.8031C486.242 27.9739 484.646 28.5593 482.686 28.5593C480.727 28.5593 479.049 27.9739 477.798 26.8031ZM488.363 32.4352V69.5787H476.969V32.415H488.363V32.4352Z" fill="white"/>
<path d="M516.001 59.9091V69.5583H510.203C506.082 69.5583 502.849 68.5489 500.546 66.5303C498.243 64.5116 497.092 61.2212 497.092 56.6388V41.8622H492.566V32.4147H497.092V23.3711H508.486V32.4147H515.94V41.8622H508.486V56.7801C508.486 57.8903 508.748 58.6979 509.293 59.1823C509.819 59.6668 510.708 59.9091 511.961 59.9091H516.021H516.001Z" fill="white"/>
<path d="M59.5953 80.2574C55.1913 78.8039 50.9287 68.8721 45.6357 68.8721C53.0499 73.3334 49.8983 79.2481 49.2923 80.2574H59.6155H59.5953Z" fill="white"/>
<path d="M91.6768 44.264C90.7475 20.6456 71.6364 1.38748 48.0202 0.297403C21.697 -0.893614 0 20.0602 0 46.0809C0 56.0128 3.15151 65.1977 8.52525 72.6869C11.6162 77.007 16.4444 79.7322 21.6768 80.1762C13.9798 71.4556 20.5252 64.1682 20.5252 64.1682C17.4747 65.6418 16.2222 70.6078 16.2222 70.6078C10.4445 67.0549 11.7777 62.8157 11.7777 62.8157C12.1414 61.9275 12.9697 59.4849 17.4141 60.3731C26.0202 32.0512 54.3636 46.8076 54.3636 46.8076C53.9192 45.9194 52.4444 40.8727 52.4444 40.8727C34.0404 38.2081 27.8182 25.1675 27.8182 25.1675C44.8889 19.9794 55.2727 34.0698 55.2727 34.0698C50.5252 22.5028 39.1111 27.1053 36.1414 8.12986C55.9596 11.4203 58.8283 26.9439 59.2323 30.2949C59.5151 29.6489 61.0909 28.7809 67.596 29.1644C77.6767 29.7498 85.697 39.9845 85.697 39.9845C85.697 60.7365 60.3232 55.7302 60.3232 71.4152C60.3232 75.0892 64.3232 74.8671 65.6566 76.6436C66.7474 78.097 66.2828 79.712 66.0607 80.2368H68.4647C74.1617 80.2368 79.5757 77.6126 82.9293 73.0099C88.7677 64.9958 92.0808 55.0236 91.6768 44.2438V44.264Z" fill="white"/>
</g>
</svg>
